<svg width="35.979" height="34.889" viewBox="0 0 195.885 34.889" fill="none" xmlns="http://www.w3.org/2000/svg"><path d="M108.6-71c-1.967-4.08-6.121-6.677-10.684-6.677-4.563 0-8.68 2.597-10.683 6.678L63.38-21.921l-53.27 7.864c-4.45.668-8.16 3.784-9.533 8.05-1.372 4.266-.26 8.977 2.93 12.13L42.163 44.37l-9.126 54.05c-.742 4.45 1.113 8.976 4.785 11.61a11.952 11.952 0 0 0 12.539.854l47.593-25.411 47.594 25.41c4.006 2.115 8.866 1.819 12.538-.853 3.673-2.67 5.527-7.16 4.785-11.61l-9.163-54.05 38.654-38.245a11.858 11.858 0 0 0 2.93-12.131 11.896 11.896 0 0 0-9.533-8.05l-53.306-7.864z" fill="#ff6060" style="stroke-width:7.91469"/></svg>